<?xml version="1.0" encoding="UTF-8"?>
<!--Generator: Apple Native CoreSVG 232.5-->
<!DOCTYPE svg
PUBLIC "-//W3C//DTD SVG 1.1//EN"
       "http://www.w3.org/Graphics/SVG/1.1/DTD/svg11.dtd">
<svg version="1.1" xmlns="http://www.w3.org/2000/svg" xmlns:xlink="http://www.w3.org/1999/xlink" width="20.1574" height="58.9702">
 <g>
  <rect height="58.9702" opacity="0" width="20.1574" x="0" y="0"/>
  <path d="M0 10.1159C0 14.8299 3.19683 18.779 7.58617 19.9129L7.58617 44.8181C7.58617 52.7105 8.97621 57.0462 10.0816 57.0462C11.1527 57.0462 12.5429 52.7447 12.5429 44.8181L12.5429 19.9129C16.9379 18.8074 20.1574 14.8299 20.1574 10.1159C20.1574 4.54159 15.6844 0 10.0816 0C4.47303 0 0 4.54159 0 10.1159Z" fill="#ffffff"/>
  <path d="M7.18796 10.6625C5.35658 10.6625 3.7418 9.0594 3.7418 7.18791C3.7418 5.32227 5.35658 3.7418 7.18796 3.7418C9.08786 3.7418 10.6399 5.32227 10.6399 7.18791C10.6399 9.0594 9.08786 10.6625 7.18796 10.6625Z" fill="#5ce009"/>
 </g>
</svg>
