<?xml version="1.0" encoding="UTF-8"?>
<!--Generator: Apple Native CoreSVG 232.5-->
<!DOCTYPE svg
PUBLIC "-//W3C//DTD SVG 1.1//EN"
       "http://www.w3.org/Graphics/SVG/1.1/DTD/svg11.dtd">
<svg version="1.1" xmlns="http://www.w3.org/2000/svg" xmlns:xlink="http://www.w3.org/1999/xlink" width="70.7724" height="51.8812">
 <g>
  <rect height="51.8812" opacity="0" width="70.7724" x="0" y="0"/>
  <path d="M9.69639 50.5348L20.2729 48.4903C25.9533 47.3885 28.4816 44.295 28.4816 38.2435L28.4816 9.01326C28.4816 3.63597 24.7202 0 19.063 0C14.3305 0 10.2659 3.40246 8.90739 8.43758L0.432235 40.6079C-1.38921 47.4772 2.7066 51.8643 9.69639 50.5348ZM24.1681 9.01326L24.1681 38.2435C24.1681 42.2492 23.1099 43.5135 19.498 44.2279L8.87504 46.2839C5.82137 46.8786 3.76258 45.0307 4.6773 41.589L13.1071 9.55462C13.9586 6.40559 16.3194 4.34789 19.063 4.34789C22.1382 4.34789 24.1681 6.20634 24.1681 9.01326ZM61.0605 50.5348C68.0562 51.8643 72.1802 47.4772 70.3306 40.6079L61.8553 8.43758C60.5194 3.40246 56.4606 0 51.6938 0C46.0709 0 42.2752 3.63597 42.2752 9.01326L42.2752 38.2435C42.2752 44.295 44.8093 47.3885 50.4898 48.4903ZM46.5946 9.01326C46.5946 6.20634 48.6244 4.34789 51.6938 4.34789C54.4432 4.34789 56.7983 6.40559 57.6782 9.55462L66.108 41.589C67.0002 45.0307 64.9696 46.8786 61.8876 46.2839L51.2646 44.2279C47.6527 43.5135 46.5946 42.2492 46.5946 38.2435Z" fill="#ffffff"/>
  <path d="M13.8447 38.5353L28.4816 35.457L28.4816 31.0238L25.2989 31.7323L17.0985 24.3032C16.2724 23.551 14.8191 23.5794 14.0157 24.4513C13.2409 25.3401 13.3547 26.7533 14.2266 27.534L20.1192 32.8093L12.9159 34.3414C11.8389 34.5807 11.0582 35.7489 11.2691 36.8885C11.4799 38.0451 12.705 38.7747 13.8447 38.5353ZM56.918 38.5353C58.0576 38.7747 59.2827 38.0451 59.4936 36.8885C59.7329 35.7489 58.9522 34.5807 57.8467 34.3414L50.6434 32.8093L56.536 27.534C57.4079 26.7533 57.5218 25.3401 56.7469 24.4513C55.9378 23.5794 54.4902 23.551 53.6642 24.3032L45.4637 31.7323L42.2752 31.0238L42.2752 35.457Z" fill="#5ce009"/>
  <path d="M35.3927 33.9835L42.2752 35.457L42.2752 31.0238L37.5239 30.0231L37.5239 3.39337C37.5239 2.22522 36.5666 1.23362 35.3927 1.23362C34.1961 1.23362 33.2388 2.22522 33.2388 3.39337L33.2388 30.0231L28.4816 31.0238L28.4816 35.457Z" fill="#5ce009"/>
 </g>
</svg>
