<?xml version="1.0" encoding="UTF-8"?>
<!--Generator: Apple Native CoreSVG 232.5-->
<!DOCTYPE svg
PUBLIC "-//W3C//DTD SVG 1.1//EN"
       "http://www.w3.org/Graphics/SVG/1.1/DTD/svg11.dtd">
<svg version="1.1" xmlns="http://www.w3.org/2000/svg" xmlns:xlink="http://www.w3.org/1999/xlink" width="58.7863" height="59.3964">
 <g>
  <rect height="59.3964" opacity="0" width="58.7863" x="0" y="0"/>
  <path d="M1.21071 53.0864C-0.431908 54.729-0.374983 56.6743 1.21071 58.2257C2.75636 59.7771 4.73591 59.8056 6.34426 58.1972L7.74038 56.8296L2.60102 51.7245Z" fill="#5ce009"/>
  <path d="M5.12194 49.181L10.2154 54.2744L13.2826 51.213C20.1146 44.2846 28.4731 46.6554 35.7135 39.4092L55.4378 19.6622C59.8967 15.2259 59.8967 8.35473 55.4721 3.9585C51.0416-0.471952 44.1704-0.471952 39.7399 3.96432L20.0156 23.7113C12.3767 31.3218 15.1176 39.2533 8.24032 46.1137ZM16.4626 38.9861C17.9135 34.8455 18.8887 30.5541 22.8765 26.5721L42.6234 6.81934C45.4524 3.99034 49.7881 4.01879 52.5828 6.81353C55.3834 9.61408 55.4118 13.9724 52.577 16.8014L32.8585 36.5258C28.8423 40.5361 24.6932 41.6252 20.6664 43.19ZM29.3093 30.1556C30.9426 31.7888 33.5923 31.783 35.2255 30.1213L43.1175 22.195C44.8135 20.4932 44.785 17.8778 43.1175 16.2905C41.4843 14.5887 38.8631 14.6572 37.2299 16.2905L29.3093 24.2051C27.6761 25.8384 27.6477 28.4939 29.3093 30.1556ZM31.0432 28.4333C30.3451 27.7068 30.3393 26.6597 31.0432 25.9332L38.9294 18.0127C39.5352 17.407 40.4662 17.3378 41.1637 17.885C42.0701 18.5024 42.174 19.6882 41.4179 20.4727L33.5201 28.3991C32.8336 29.0855 31.6954 29.0913 31.0432 28.4333ZM23.6826 32.7292L26.713 35.7138C27.4083 36.4091 28.3603 36.3011 28.9191 35.7423C29.5291 35.1609 29.6145 34.2088 28.9191 33.4792L25.8887 30.4888C25.216 29.8504 24.2698 29.8789 23.6826 30.4888C23.0953 31.0703 22.9814 32.0851 23.6826 32.7292ZM38.3419 6.64607L52.7788 21.0545L54.871 18.9907L40.4057 4.51951Z" fill="#ffffff"/>
 </g>
</svg>
