<?xml version="1.0" encoding="UTF-8"?>
<!--Generator: Apple Native CoreSVG 232.5-->
<!DOCTYPE svg
PUBLIC "-//W3C//DTD SVG 1.1//EN"
       "http://www.w3.org/Graphics/SVG/1.1/DTD/svg11.dtd">
<svg version="1.1" xmlns="http://www.w3.org/2000/svg" xmlns:xlink="http://www.w3.org/1999/xlink" width="58.0675" height="58.2383">
 <g>
  <rect height="58.2383" opacity="0" width="58.0675" x="0" y="0"/>
  <path d="M29.0451 10.4334C30.3102 10.4334 31.3471 9.36805 31.3471 8.1029L31.3471 2.29619C31.3471 1.0369 30.3102 0 29.0451 0C27.7573 0 26.7204 1.0369 26.7204 2.29619L26.7204 8.1029C26.7204 9.36805 27.7573 10.4334 29.0451 10.4334ZM42.1955 15.9231C43.1017 16.8177 44.583 16.8461 45.5118 15.9231L49.6325 11.8367C50.4985 10.9306 50.4985 9.42085 49.6325 8.51466C48.7263 7.62593 47.245 7.62593 46.3447 8.51466L42.1955 12.6638C41.3352 13.5699 41.3352 15.0228 42.1955 15.9231ZM47.6568 29.102C47.6568 30.3614 48.728 31.4325 49.9873 31.4325L55.737 31.4325C57.0306 31.4325 58.0675 30.3614 58.0675 29.102C58.0675 27.8427 57.0306 26.7715 55.737 26.7715L49.9873 26.7715C48.728 26.7715 47.6568 27.8427 47.6568 29.102ZM42.1955 42.3094C41.3352 43.2097 41.3352 44.6625 42.1955 45.5687L46.3447 49.7178C47.245 50.6066 48.7263 50.5781 49.6325 49.6894C50.4985 48.7832 50.4985 47.302 49.6325 46.3958L45.4833 42.3094C44.583 41.4148 43.1017 41.4148 42.1955 42.3094ZM29.0451 47.7707C27.7573 47.7707 26.7204 48.836 26.7204 50.1011L26.7204 55.9078C26.7204 57.1672 27.7573 58.204 29.0451 58.204C30.3102 58.204 31.3471 57.1672 31.3471 55.9078L31.3471 50.1011C31.3471 48.836 30.3102 47.7707 29.0451 47.7707ZM15.872 42.3094C14.9658 41.4148 13.4561 41.4148 12.5557 42.3094L8.46354 46.3674C7.569 47.2735 7.569 48.7547 8.43508 49.6609C9.33542 50.5497 10.8225 50.5781 11.7229 49.6894L15.8435 45.5687C16.7323 44.6625 16.7323 43.2097 15.872 42.3094ZM10.4049 29.102C10.4049 27.8427 9.36803 26.7715 8.08022 26.7715L2.33047 26.7715C1.03688 26.7715 0 27.8427 0 29.102C0 30.3614 1.03688 31.4325 2.33047 31.4325L8.08022 31.4325C9.36803 31.4325 10.4049 30.3614 10.4049 29.102ZM15.8435 15.9231C16.7323 15.0512 16.7323 13.5415 15.872 12.6638L11.7513 8.51466C10.8794 7.65437 9.36393 7.62593 8.49198 8.51466C7.59745 9.42085 7.59745 10.9306 8.46354 11.8082L12.5557 15.9231C13.4561 16.8177 14.9374 16.8177 15.8435 15.9231Z" fill="#ffffff"/>
  <path d="M29.0335 42.7989C36.4958 42.7989 42.7018 36.6155 42.7018 29.102C42.7018 21.5886 36.4958 15.4052 29.0335 15.4052C21.5485 15.4052 15.3366 21.5886 15.3366 29.102C15.3366 36.6155 21.5485 42.7989 29.0335 42.7989ZM29.0335 38.7071C23.7767 38.7071 19.4283 34.3361 19.4283 29.102C19.4283 23.8679 23.7767 19.4969 29.0335 19.4969C34.2676 19.4969 38.6101 23.8679 38.6101 29.102C38.6101 34.3361 34.2676 38.7071 29.0335 38.7071Z" fill="#ffffff"/>
 </g>
</svg>
