<?xml version="1.0" encoding="UTF-8"?>
<!--Generator: Apple Native CoreSVG 232.5-->
<!DOCTYPE svg
PUBLIC "-//W3C//DTD SVG 1.1//EN"
       "http://www.w3.org/Graphics/SVG/1.1/DTD/svg11.dtd">
<svg version="1.1" xmlns="http://www.w3.org/2000/svg" xmlns:xlink="http://www.w3.org/1999/xlink" width="52.6398" height="56.8052">
 <g>
  <rect height="56.8052" opacity="0" width="52.6398" x="0" y="0"/>
  <path d="M25.4227 56.8052L27.1828 56.8052C31.5552 56.8052 33.6655 54.8663 33.6655 50.7733L33.6655 41.0913L42.0093 45.9407C43.2598 46.6772 44.4412 47.0199 45.4855 47.0199C47.4197 47.0199 49.0682 45.8158 50.4609 43.3728L51.3666 41.8463C52.2059 40.3791 52.6398 39.0949 52.6398 37.8966C52.6398 36.0025 51.5269 34.4453 49.3749 33.218L40.9968 28.3855L49.3523 23.5588C51.5042 22.3372 52.6113 20.7742 52.6113 18.8859C52.6113 17.7103 52.1774 16.4261 51.3381 14.9531L50.4609 13.4608C49.0397 10.9894 47.3913 9.77955 45.4286 9.77955C44.3843 9.77955 43.2313 10.1222 41.9866 10.8587L33.6655 15.657L33.6655 6.03194C33.6655 1.93892 31.5552 0 27.1828 0L25.4227 0C21.0502 0 18.9685 1.93892 18.9685 6.03194L18.9685 15.657L10.6247 10.8587C9.37993 10.1222 8.25549 9.77955 7.18265 9.77955C5.24851 9.77955 3.60005 10.9894 2.15027 13.4608L1.30161 14.9531C0.462334 16.4261 0.0284658 17.7103 0.0284658 18.8859C0.0284658 20.7742 1.10706 22.3372 3.29331 23.5588L11.6145 28.3855L3.27061 33.218C1.11287 34.4453 0 36.0025 0 37.8966C0 39.0949 0.433868 40.3791 1.27315 41.8463L2.15027 43.3728C3.5716 45.8158 5.22001 47.0199 7.12576 47.0199C8.19854 47.0199 9.35149 46.6772 10.602 45.9407L18.9685 41.0913L18.9685 50.7733C18.9685 54.8663 21.0502 56.8052 25.4227 56.8052ZM26.1343 52.7478C23.9511 52.7478 23.2251 52.1252 23.2251 49.982L23.2251 34.8189C23.2251 34.4536 22.9742 34.1684 22.6547 34.1684C22.5235 34.1684 22.4207 34.2026 22.2894 34.2712L9.14808 41.867C8.468 42.2613 7.87383 42.4728 7.38248 42.4728C6.58798 42.4728 6.01065 41.9181 5.30213 40.7008L5.13075 40.4267C4.69635 39.6664 4.44487 39.0264 4.44487 38.4892C4.44487 37.7405 4.94203 37.1406 6.0734 36.529L19.4245 28.7856C19.6702 28.6428 19.8073 28.4429 19.8073 28.2147C19.8073 27.9864 19.6702 27.7523 19.396 27.6153L6.10185 20.2704C4.97628 19.6304 4.47912 19.0589 4.47912 18.2818C4.47912 17.7446 4.69635 17.133 5.13075 16.3785L5.30213 16.0702C6.01065 14.8528 6.61643 14.304 7.41092 14.304C7.90228 14.304 8.49645 14.5154 9.17653 14.9098L22.2262 22.4881C22.3632 22.5567 22.466 22.5909 22.6031 22.5909C22.9626 22.5909 23.2251 22.3058 23.2251 21.8945L23.2251 6.82315C23.2251 4.68003 23.9511 4.05742 26.1343 4.05742L26.477 4.05742C28.6828 4.05742 29.4088 4.68003 29.4088 6.82315L29.4088 21.8945C29.4088 22.3 29.637 22.5909 29.9966 22.5909C30.1278 22.5909 30.2307 22.5567 30.3677 22.4881L43.4632 14.9098C44.1717 14.5154 44.709 14.304 45.2004 14.304C46.0233 14.304 46.6291 14.8528 47.3092 16.0702L47.4805 16.3785C47.9149 17.1388 48.1664 17.7446 48.1664 18.2818C48.1664 19.0589 47.6408 19.6304 46.5379 20.2704L33.2553 27.6495C32.9812 27.7866 32.8441 27.9864 32.8441 28.2147C32.8441 28.4371 32.9812 28.637 33.2269 28.7798L46.5663 36.529C47.6692 37.1406 48.1949 37.7405 48.1949 38.495C48.1949 39.0606 47.9149 39.6664 47.4805 40.4267L47.3092 40.7008C46.6291 41.9181 46.0517 42.4669 45.2288 42.4669C44.7316 42.4669 44.1659 42.2555 43.4916 41.867L30.3445 34.2654C30.2132 34.1968 30.1162 34.1684 29.985 34.1684C29.637 34.1684 29.4088 34.4536 29.4088 34.8189L29.4088 49.982C29.4088 52.1252 28.6828 52.7478 26.477 52.7478Z" fill="#ffffff"/>
 </g>
</svg>
